<?xml version="1.0" standalone="no"?>
<!DOCTYPE svg PUBLIC "-//W3C//DTD SVG 20010904//EN"
 "http://www.w3.org/TR/2001/REC-SVG-20010904/DTD/svg10.dtd">
<svg version="1.0" xmlns="http://www.w3.org/2000/svg"
 width="75.000000pt" height="75.000000pt" viewBox="0 0 75.000000 75.000000"
 preserveAspectRatio="xMidYMid meet">

<g transform="translate(0.000000,75.000000) scale(0.100000,-0.100000)"
fill="#000000" stroke="none">
<path d="M120 734 c0 -6 16 -26 36 -45 19 -18 61 -68 92 -109 31 -41 101 -128
154 -192 54 -64 98 -122 98 -128 0 -10 72 -99 128 -158 6 -7 12 -17 12 -22 0
-16 41 -33 52 -22 7 7 -5 28 -39 64 -27 29 -62 73 -78 98 -17 25 -84 106 -150
180 -66 74 -141 162 -167 195 -52 68 -138 154 -138 139z"/>
</g>
</svg>
